<svg width="14" height="14" viewBox="0 0 14 14" fill="none" xmlns="http://www.w3.org/2000/svg">
<path d="M7 5.33313C6.67035 5.33325 6.34814 5.43111 6.0741 5.61435C5.80007 5.79758 5.58652 6.05795 5.46045 6.36255C5.33439 6.66714 5.30147 7.00227 5.36585 7.32557C5.43024 7.64887 5.58905 7.94583 5.82219 8.17888C6.05533 8.41193 6.35234 8.57063 6.67566 8.63489C6.99899 8.69916 7.33411 8.66611 7.63865 8.53993C7.9432 8.41375 8.20349 8.2001 8.38662 7.926C8.56976 7.6519 8.6675 7.32965 8.6675 7C8.66717 6.55791 8.49136 6.13403 8.1787 5.82149C7.86603 5.50894 7.44209 5.33329 7 5.33313V5.33313ZM10.8972 4.05188C10.8123 3.83683 10.6842 3.64151 10.5207 3.47803C10.3572 3.31456 10.1619 3.18642 9.94687 3.10156C9.29062 2.8425 7.72812 2.90062 7 2.90062C6.27188 2.90062 4.71094 2.84031 4.05281 3.10156C3.83776 3.18642 3.64244 3.31456 3.47897 3.47803C3.3155 3.64151 3.18736 3.83683 3.1025 4.05188C2.84375 4.70813 2.90156 6.27219 2.90156 6.99969C2.90156 7.72719 2.84375 9.28937 3.10375 9.94781C3.18861 10.1629 3.31675 10.3582 3.48022 10.5217C3.64369 10.6851 3.83901 10.8133 4.05406 10.8981C4.71031 11.1572 6.27281 11.0991 7.00125 11.0991C7.72969 11.0991 9.29 11.1594 9.94812 10.8981C10.1632 10.8133 10.3585 10.6851 10.522 10.5217C10.6854 10.3582 10.8136 10.1629 10.8984 9.94781C11.1594 9.29156 11.0994 7.7275 11.0994 7C11.0994 6.2725 11.1594 4.71062 10.8984 4.05219L10.8972 4.05188ZM7 9.5625C6.49319 9.5625 5.99775 9.41221 5.57635 9.13064C5.15495 8.84907 4.82651 8.44886 4.63256 7.98063C4.43861 7.51239 4.38786 6.99716 4.48674 6.50008C4.58561 6.003 4.82967 5.54641 5.18804 5.18804C5.54641 4.82967 6.003 4.58561 6.50008 4.48674C6.99716 4.38786 7.51239 4.43861 7.98063 4.63256C8.44886 4.82651 8.84907 5.15495 9.13064 5.57635C9.41221 5.99775 9.5625 6.49319 9.5625 7C9.56291 7.33663 9.49691 7.67003 9.36828 7.98111C9.23965 8.29219 9.05091 8.57485 8.81288 8.81288C8.57485 9.05091 8.29219 9.23965 7.98111 9.36828C7.67003 9.49691 7.33663 9.56291 7 9.5625V9.5625ZM9.66813 4.92812C9.54981 4.92819 9.43414 4.89316 9.33574 4.82747C9.23734 4.76179 9.16063 4.6684 9.11531 4.55911C9.06999 4.44982 9.0581 4.32955 9.08114 4.2135C9.10419 4.09746 9.16113 3.99085 9.24476 3.90717C9.3284 3.82349 9.43498 3.76649 9.55101 3.74339C9.66704 3.72029 9.78732 3.73211 9.89663 3.77737C10.0059 3.82264 10.0994 3.8993 10.1651 3.99767C10.2309 4.09604 10.2659 4.21169 10.2659 4.33C10.2663 4.40857 10.2511 4.48643 10.2213 4.55911C10.1914 4.63179 10.1475 4.69787 10.0921 4.75356C10.0367 4.80925 9.97082 4.85344 9.89827 4.88361C9.82573 4.91378 9.74794 4.92933 9.66938 4.92938L9.66813 4.92812ZM12.5 0L1.5 0C1.10218 0 0.720644 0.158035 0.43934 0.43934C0.158035 0.720644 0 1.10218 0 1.5L0 12.5C0 12.8978 0.158035 13.2794 0.43934 13.5607C0.720644 13.842 1.10218 14 1.5 14H12.5C12.8978 14 13.2794 13.842 13.5607 13.5607C13.842 13.2794 14 12.8978 14 12.5V1.5C14 1.10218 13.842 0.720644 13.5607 0.43934C13.2794 0.158035 12.8978 0 12.5 0V0ZM11.965 9.0625C11.9247 9.86344 11.7419 10.5731 11.1572 11.1562C10.5725 11.7394 9.86344 11.9259 9.06344 11.9641C8.23812 12.0106 5.76375 12.0106 4.93844 11.9641C4.1375 11.9238 3.43031 11.7406 2.84469 11.1562C2.25906 10.5719 2.075 9.86187 2.03688 9.0625C1.99031 8.23687 1.99031 5.76219 2.03688 4.9375C2.07719 4.13656 2.25781 3.42687 2.84469 2.84375C3.43156 2.26063 4.14062 2.07625 4.93844 2.03813C5.76375 1.99156 8.23812 1.99156 9.06344 2.03813C9.86437 2.07844 10.5737 2.26156 11.1572 2.84594C11.7406 3.43031 11.9269 4.14031 11.965 4.94125C12.0116 5.76375 12.0116 8.23625 11.965 9.0625Z" fill="#132446"/>
</svg>
