<svg width="14" height="14" viewBox="0 0 14 14" fill="none" xmlns="http://www.w3.org/2000/svg">
<path d="M12.5 0L1.5 0C0.671562 0 0 0.671562 0 1.5L0 12.5C0 13.3284 0.671562 14 1.5 14H12.5C13.3284 14 14 13.3284 14 12.5V1.5C14 0.671562 13.3284 0 12.5 0ZM5.56616 7.19075C2.73216 5.13397 2.76103 5.12878 2 4.53647V3.75C2 3.33578 2.33578 3 2.75 3H11.25C11.6642 3 12 3.33578 12 3.75V4.53647C11.2384 5.12925 11.2677 5.13409 8.43384 7.19078C8.10572 7.43 7.45284 8.00703 7 7.99997C6.54678 8.00678 5.89478 7.43038 5.56616 7.19075V7.19075ZM12 5.80547V10.25C12 10.6642 11.6642 11 11.25 11H2.75C2.33578 11 2 10.6642 2 10.25V5.80547C2.43619 6.14278 3.04153 6.59409 4.97822 7.99966C5.42078 8.32281 6.16494 9.00419 6.99991 8.99997C7.84012 9.00416 8.59481 8.31119 9.02241 7.99919C10.9586 6.59403 11.5638 6.14275 12 5.80547V5.80547Z" fill="#132446"/>
</svg>
